<svg version="1.1" id="Layer_1" xmlns="http://www.w3.org/2000/svg" xmlns:xlink="http://www.w3.org/1999/xlink" x="0px" y="0px"
	 width="137.908px" height="137.908px" viewBox="0 0 137.908 137.908" enable-background="new 0 0 137.908 137.908"
	 xml:space="preserve">
<g>
	<path d="M44.895,42.82c-2.54,0.953-5.001,2.276-7.383,3.97l-1.746-4.128h-6.748v53.795h10.32V54.49
		c2.115-1.534,3.836-2.672,5.16-3.414c1.043-0.583,2.172-0.928,3.379-1.053V41.9C46.934,42.133,45.947,42.426,44.895,42.82z"/>
	<path d="M110.059,44.924c-1.932-2.354-5.094-3.532-9.486-3.532c-1.905,0-4.102,0.464-6.589,1.39
		c-2.484,0.925-4.915,2.207-7.294,3.844c-0.327-0.618-0.69-1.191-1.108-1.701c-1.647-2.008-4.197-3.151-7.632-3.447
		c-0.011-0.001-0.021-0.002-0.031-0.004c-0.585-0.049-1.188-0.081-1.824-0.081c-0.006,0-0.015,0.001-0.021,0.001
		c-0.011,0-0.021-0.001-0.031-0.001c-1.904,0-4.127,0.476-6.668,1.429c-1.795,0.674-3.547,1.541-5.262,2.583
		c-0.045,0.027-0.09,0.052-0.136,0.079c-0.279,0.172-0.556,0.357-0.832,0.539c-0.313,0.203-0.63,0.395-0.942,0.609
		c-1.617-3.05-4.527-4.768-8.728-5.154l0.021,54.98h0.132h10.189h0.132V55.443V54.41c2.063-1.48,3.757-2.592,5.081-3.334
		c1.312-0.734,2.758-1.104,4.332-1.109c1.631,0.006,2.828,0.639,3.593,1.904c0.767,1.27,1.151,3.148,1.151,5.637v23.354h10.374
		V55.443c0-0.361-0.017-0.703-0.028-1.05c2.052-1.472,3.738-2.578,5.057-3.317c1.322-0.74,2.777-1.111,4.365-1.111
		c1.641,0,2.845,0.636,3.612,1.906c0.767,1.27,1.151,3.148,1.151,5.637v38.949h10.32V55.443
		C112.957,50.787,111.991,47.279,110.059,44.924z"/>
	<polygon points="78.105,96.457 78.158,96.457 88.426,96.457 88.479,96.457 88.479,86.457 78.105,86.457 "/>
</g>
<rect x="2.987" y="2.924" fill="none" stroke="#000000" stroke-width="6" stroke-miterlimit="10" width="132" height="132"/>
</svg>
