<svg version="1.1" id="Layer_1" xmlns="http://www.w3.org/2000/svg" xmlns:xlink="http://www.w3.org/1999/xlink" x="0px" y="0px"
	 width="137.908px" height="137.908px" viewBox="0 0 137.908 137.908" enable-background="new 0 0 137.908 137.908"
	 xml:space="preserve">
<g>
	<path d="M41.842,43.029c-2.539,0.953-5,2.275-7.382,3.969l-1.747-4.128h-6.748v53.796h10.32V54.699
		c2.116-1.535,3.837-2.672,5.16-3.414c1.043-0.584,2.172-0.929,3.379-1.053v-8.123C43.881,42.341,42.896,42.635,41.842,43.029z"/>
	<path d="M107.007,45.133c-1.932-2.354-5.094-3.533-9.486-3.533c-1.906,0-4.102,0.465-6.59,1.391
		c-2.484,0.924-4.914,2.206-7.293,3.843c-0.328-0.618-0.691-1.191-1.109-1.7c-1.646-2.008-4.197-3.152-7.632-3.447
		c-0.011-0.002-0.021-0.003-0.031-0.004c-0.585-0.049-1.187-0.082-1.823-0.082c-0.007,0-0.016,0.002-0.022,0.002
		c-0.011,0-0.021-0.002-0.03-0.002c-1.905,0-4.128,0.477-6.669,1.43c-1.794,0.673-3.546,1.54-5.261,2.582
		c-0.045,0.027-0.091,0.052-0.137,0.08c-0.279,0.172-0.555,0.357-0.832,0.538c-0.313,0.203-0.629,0.396-0.941,0.61
		c-1.617-3.051-4.528-4.768-8.728-5.154l0.021,54.98h0.132h10.188h0.132V55.652v-1.033c2.064-1.48,3.758-2.592,5.082-3.334
		c1.312-0.735,2.758-1.104,4.332-1.109c1.63,0.005,2.828,0.639,3.592,1.903c0.768,1.271,1.152,3.149,1.152,5.637v23.354h10.373
		V55.652c0-0.361-0.016-0.703-0.027-1.051c2.051-1.471,3.737-2.578,5.056-3.316c1.322-0.74,2.778-1.111,4.366-1.111
		c1.641,0,2.844,0.635,3.611,1.905s1.152,3.149,1.152,5.637v38.95h10.32V55.652C109.905,50.995,108.938,47.488,107.007,45.133z"/>
	<polygon points="75.054,96.666 75.106,96.666 85.374,96.666 85.427,96.666 85.427,86.666 75.054,86.666 "/>
</g>
</svg>
